<svg width="197" height="218" viewBox="0 0 197 218" fill="none" xmlns="http://www.w3.org/2000/svg">
<path fill-rule="evenodd" clip-rule="evenodd" d="M142.959 51.1205C162.937 14.0838 213.094 -30.3978 41.1696 -35.772C71.2635 -67.4534 114.879 -85.7996 161.79 -82.0983C244.337 -75.5848 306.04 -3.31184 299.529 79.225C293.102 160.674 222.644 221.832 141.478 217.182C309.172 -13.4875 114.502 100.121 142.959 51.1205ZM0.471642 55.6304C1.90105 37.5115 6.49189 20.3902 13.6861 4.77403C152.62 -11.0213 154.088 4.44609 135.565 24.2406C120.43 41.1753 103.743 59.3651 102.554 67.7744C95.8866 118.894 287.155 17.2024 90.1635 205.009C33.0958 180.173 -4.69686 121.137 0.471642 55.6304Z" fill="#343D4C" fill-opacity="0.2"/>
</svg>
