<svg width="301" height="296" viewBox="0 0 301 296" fill="none" xmlns="http://www.w3.org/2000/svg">
<path d="M142.488 153.9C127.989 139.402 115.189 114.983 104.441 81.32C91.4269 40.5587 67.5554 2.01836 35.4058 -30.1312L0.495347 -65.0417L1.35217 -65.8985L36.2626 -30.988C52.3032 -14.9474 66.4008 2.82424 78.164 21.8293C89.8931 40.7796 99.122 60.6709 105.595 80.9489C116.283 114.425 128.983 138.682 143.345 153.044C157.705 167.404 181.962 180.104 215.44 190.794C235.719 197.268 255.611 206.497 274.559 218.224C293.568 229.988 311.336 244.085 327.376 260.126L362.287 295.036L361.43 295.893L326.52 260.983C294.37 228.833 255.831 204.96 215.068 191.948C181.406 181.2 156.986 168.399 142.488 153.9Z" fill="#FF601E" fill-opacity="0.3"/>
<path d="M156.26 140.128C142.232 126.099 129.757 102.561 119.176 70.165C106.36 30.9216 83.134 -6.27416 52.0101 -37.398L18.2194 -71.1888L18.9905 -71.9599L52.7813 -38.1691C68.3039 -22.6465 81.976 -5.47862 93.4147 12.8593C104.821 31.1408 113.837 50.3084 120.21 69.8248C130.737 102.057 143.123 125.451 157.028 139.357C170.934 153.262 194.328 165.652 226.56 176.175C246.077 182.548 265.241 191.564 283.526 202.97C301.862 214.411 319.032 228.081 334.554 243.604L368.345 277.394L367.574 278.166L333.783 244.375C302.659 213.251 265.463 190.025 226.22 177.209C193.827 166.631 170.287 154.155 156.26 140.128Z" fill="#FF601E" fill-opacity="0.3"/>
<path d="M170.033 126.355C156.476 112.799 144.322 90.1399 133.91 59.01C121.293 21.2846 98.7142 -14.565 68.6161 -44.6631L35.9452 -77.3341L36.6306 -78.0195L69.3016 -45.3486C99.504 -15.1462 122.163 20.8351 134.828 58.7008C145.192 89.687 157.268 112.219 170.717 125.668C184.167 139.119 206.698 151.193 237.684 161.557C275.55 174.222 311.531 196.881 341.734 227.083L374.404 259.754L373.719 260.44L341.048 227.769C310.95 197.671 275.1 175.092 237.375 162.475C206.249 152.066 183.59 139.912 170.033 126.355Z" fill="#FF601E" fill-opacity="0.3"/>
<path d="M183.807 112.581C170.721 99.4945 158.891 77.7185 148.647 47.8532C136.225 11.6458 114.295 -22.8592 85.2239 -51.9299L53.6726 -83.4811L54.2724 -84.0809L85.8237 -52.5297C114.985 -23.3684 136.987 11.2495 149.45 47.5767C159.651 77.3171 171.415 98.9853 184.409 111.98C197.403 124.974 219.073 136.735 248.812 146.939C285.141 159.4 319.755 181.402 348.918 210.565L380.468 242.114L379.868 242.714L348.318 211.165C319.246 182.092 284.743 160.16 248.535 147.742C218.67 137.498 196.894 125.668 183.807 112.581Z" fill="#FF601E" fill-opacity="0.3"/>
<path d="M197.58 98.8084C184.964 86.192 173.458 65.2954 163.382 36.6983C151.16 2.01047 129.875 -31.15 101.83 -59.195L71.4001 -89.6248L71.9142 -90.1389L102.344 -59.7091C130.466 -31.5872 151.809 1.66567 164.067 36.4544C174.107 64.9472 185.555 85.7549 198.094 98.2943C210.633 110.834 231.44 122.283 259.934 132.322C294.725 144.581 327.977 165.924 356.097 194.044L386.527 224.474L386.013 224.988L355.583 194.559C327.538 166.514 294.378 145.229 259.69 133.007C231.093 122.931 210.196 111.425 197.58 98.8084Z" fill="#FF601E" fill-opacity="0.3"/>
<path d="M211.353 85.0358C199.206 72.8896 188.025 52.8723 178.115 25.5416C166.09 -7.6266 145.452 -39.4409 118.434 -66.4584L89.1224 -95.7702L89.5508 -96.1986L118.861 -66.8885C145.942 -39.8077 166.627 -7.91825 178.681 25.3337C188.561 52.5824 199.694 72.5244 211.779 84.6091C223.862 96.6922 243.806 107.828 271.053 117.705C304.305 129.759 336.194 150.445 363.275 177.526L392.585 206.836L392.157 207.264L362.847 177.954C335.828 150.935 304.015 130.299 270.845 118.272C243.516 108.364 223.499 97.1821 211.353 85.0358Z" fill="#FF601E" fill-opacity="0.3"/>
<path d="M225.125 71.2633C213.449 59.5871 202.588 40.4492 192.85 14.3831C181.023 -17.2671 161.032 -47.7351 135.04 -73.7269L106.85 -101.917L107.193 -102.26L135.383 -74.0697C161.423 -48.03 181.451 -17.5038 193.302 14.2114C203.02 40.2125 213.84 59.2923 225.466 70.9189C237.093 82.5454 256.172 93.3688 282.174 103.083C313.887 114.936 344.415 134.962 370.455 161.002L398.645 189.192L398.302 189.535L370.112 161.345C344.12 135.353 313.652 115.362 282.002 103.536C255.939 93.7971 236.801 82.9394 225.125 71.2633Z" fill="#FF601E" fill-opacity="0.3"/>
<path d="M238.899 57.489C227.692 46.2812 217.156 28.0244 207.583 3.22294C195.952 -26.9076 176.611 -56.0276 151.646 -80.992L124.576 -108.063L124.833 -108.32L151.903 -81.249C176.904 -56.2487 196.273 -27.0842 207.922 3.09251C217.475 27.846 227.986 46.0618 239.156 57.2319C250.327 68.402 268.544 78.9116 293.296 88.4668C323.473 100.116 352.637 119.485 377.637 144.485L404.708 171.556L404.451 171.813L377.38 144.742C352.416 119.778 323.294 100.434 293.164 88.8042C268.364 79.2319 250.105 68.695 238.899 57.489Z" fill="#FF601E" fill-opacity="0.3"/>
<path d="M252.672 43.7164C241.934 32.9788 231.722 15.5996 222.316 -7.93717C210.884 -36.5464 192.187 -64.3218 168.251 -88.2588L142.3 -114.21L142.471 -114.381L168.422 -88.4301C192.381 -64.471 211.095 -36.6681 222.54 -8.02812C231.932 15.4779 242.128 32.8297 252.842 43.5434C263.555 54.257 280.907 64.4527 304.413 73.845C333.053 85.2903 360.856 104.004 384.815 127.963L410.766 153.914L410.595 154.085L384.644 128.135C360.707 104.198 332.933 85.5027 304.322 74.0694C280.789 64.6668 263.41 54.454 252.672 43.7164Z" fill="#FF601E" fill-opacity="0.3"/>
<path d="M266.445 29.9438C256.175 19.6746 246.285 3.17656 237.049 -19.0973C225.814 -46.1868 207.766 -72.6144 184.857 -95.5239L160.027 -120.353L160.113 -120.439L184.942 -95.6096C207.862 -72.6898 225.92 -46.2486 237.16 -19.1436C246.391 3.11479 256.273 19.6009 266.53 29.8581C276.787 40.1154 293.274 49.9972 315.532 59.2284C342.635 70.4701 369.077 88.5248 391.998 111.446L416.827 136.276L416.742 136.361L391.912 111.532C369.003 88.6224 342.575 70.5746 315.486 59.3397C293.214 50.1016 276.714 40.213 266.445 29.9438Z" fill="#FF601E" fill-opacity="0.3"/>
<path d="M266.487 29.901L143.344 153.899L142.489 153.045L266.487 29.901Z" fill="#FF601E" fill-opacity="0.3"/>
<path d="M260.317 22.9217L134.731 143.861L133.979 143.078L260.317 22.9217Z" fill="#FF601E" fill-opacity="0.3"/>
<path d="M254.801 15.2878L127.289 132.663L126.638 131.95L254.801 15.2878Z" fill="#FF601E" fill-opacity="0.3"/>
<path d="M249.762 7.17745L120.777 120.66L120.22 120.021L249.762 7.17745Z" fill="#FF601E" fill-opacity="0.3"/>
<path d="M243.052 -5.59154L112.355 101.535L111.895 100.972L243.052 -5.59154Z" fill="#FF601E" fill-opacity="0.3"/>
<path d="M237.103 -19.1213L105.199 81.3756L104.835 80.895L237.103 -19.1213Z" fill="#FF601E" fill-opacity="0.3"/>
<path d="M226.994 -40.0471L92.9334 50.2839L92.6652 49.882L226.994 -40.0471Z" fill="#FF601E" fill-opacity="0.3"/>
<path d="M214.876 -59.62L77.235 21.4966L77.0505 21.1819L214.876 -59.62Z" fill="#FF601E" fill-opacity="0.3"/>
<path d="M200.861 -78.0901L58.2584 -5.3765L58.1491 -5.59207L200.861 -78.0901Z" fill="#FF601E" fill-opacity="0.3"/>
<path d="M184.899 -95.5667L35.8581 -30.5049L35.8087 -30.616L184.899 -95.5667Z" fill="#FF601E" fill-opacity="0.3"/>
<path d="M0.911792 -65.4992L160.07 -120.396L0.932258 -65.441L0.911792 -65.4992Z" fill="#FF601E" fill-opacity="0.3"/>
<path d="M266.487 29.901L143.344 153.899L142.489 153.045L266.487 29.901Z" fill="#FF601E" fill-opacity="0.3"/>
<path d="M273.467 36.0714L153.31 162.41L152.526 161.656L273.467 36.0714Z" fill="#FF601E" fill-opacity="0.3"/>
<path d="M281.101 41.5873L164.439 169.751L163.724 169.098L281.101 41.5873Z" fill="#FF601E" fill-opacity="0.3"/>
<path d="M289.211 46.6268L176.366 176.167L175.728 175.612L289.211 46.6268Z" fill="#FF601E" fill-opacity="0.3"/>
<path d="M301.98 53.3363L195.415 184.492L194.854 184.033L301.98 53.3363Z" fill="#FF601E" fill-opacity="0.3"/>
<path d="M315.508 59.2832L215.493 191.553L215.011 191.188L315.508 59.2832Z" fill="#FF601E" fill-opacity="0.3"/>
<path d="M336.434 69.3924L246.506 203.723L246.105 203.455L336.434 69.3924Z" fill="#FF601E" fill-opacity="0.3"/>
<path d="M356.008 81.5127L275.205 219.336L274.892 219.153L356.008 81.5127Z" fill="#FF601E" fill-opacity="0.3"/>
<path d="M374.477 95.5255L301.979 238.238L301.763 238.128L374.477 95.5255Z" fill="#FF601E" fill-opacity="0.3"/>
<path d="M391.955 111.489L327.003 260.578L326.893 260.53L391.955 111.489Z" fill="#FF601E" fill-opacity="0.3"/>
<path d="M361.829 295.456L416.784 136.318L361.886 295.475L361.829 295.456Z" fill="#FF601E" fill-opacity="0.3"/>
</svg>
