<svg width="116" height="100" viewBox="0 0 116 100" fill="none" xmlns="http://www.w3.org/2000/svg">
<path fill-rule="evenodd" clip-rule="evenodd" d="M6.23547 104.149C-18.2087 90.9635 -47.5667 57.8604 -51.1136 171.33C-72.0233 151.468 -84.1318 122.682 -81.6889 91.7205C-77.3901 37.2397 -29.6899 -3.48434 24.7844 0.81337C78.5405 5.0546 118.905 51.5571 115.836 105.127C-36.4058 -5.55104 38.5758 122.931 6.23547 104.149ZM9.21197 198.191C-2.74651 197.248 -14.0465 194.218 -24.3532 189.469C-34.7782 97.773 -24.5697 96.8038 -11.5052 109.029C-0.328354 119.019 11.6769 130.032 17.227 130.817C50.9661 135.217 -16.1505 8.9799 107.802 138.994C91.41 176.659 52.4463 201.602 9.21197 198.191Z" fill="#343D4C" fill-opacity="0.2"/>
</svg>
